name C:\Users\u0101727\Documents\MyRepositories\upper-imu-dc\Results\main_tracking\Case_42\FLX01_linearAccelerations_bodyFrame.mot
datacolumns 4
datarows 70
range 2.01000000 2.70000000
endheader 
time	radius_imu_x	radius_imu_y	radius_imu_z	
          2.01000000	         -4.91544918	         -3.35366316	          7.27402769	
          2.02000000	         -4.90907372	         -3.49350938	          7.18315301	
          2.03000000	         -4.89968566	         -3.63438424	          7.09187573	
          2.04000000	         -4.88734241	         -3.77587677	          7.00068533	
          2.05000000	         -4.87199636	         -3.91749373	          6.91013595	
          2.06000000	         -4.85346035	         -4.05864405	          6.82081895	
          2.07000000	         -4.83140151	         -4.19865743	          6.73332099	
          2.08000000	         -4.80537916	         -4.33683866	          6.64817219	
          2.09000000	         -4.77492521	         -4.47254854	          6.56579268	
          2.10000000	         -4.73965521	         -4.60529870	          6.48644511	
          2.11000000	         -4.69939334	         -4.73484158	          6.41019975	
          2.12000000	         -4.65428613	         -4.86121996	          6.33692453	
          2.13000000	         -4.60487490	         -4.98473923	          6.26631129	
          2.14000000	         -4.55208914	         -5.10585694	          6.19793574	
          2.15000000	         -4.49712642	         -5.22502969	          6.13133380	
          2.16000000	         -4.44124830	         -5.34258129	          6.06606518	
          2.17000000	         -4.38558309	         -5.45863646	          6.00174253	
          2.18000000	         -4.33100267	         -5.57312561	          5.93802897	
          2.19000000	         -4.27808580	         -5.68583938	          5.87462411	
          2.20000000	         -4.22714590	         -5.79649482	          5.81125758	
          2.21000000	         -4.17827584	         -5.90477314	          5.74769813	
          2.22000000	         -4.13136609	         -6.01031363	          5.68377412	
          2.23000000	         -4.08610118	         -6.11268900	          5.61939354	
          2.24000000	         -4.04198002	         -6.21140534	          5.55455115	
          2.25000000	         -3.99838155	         -6.30594844	          5.48931737	
          2.26000000	         -3.95465704	         -6.39586276	          5.42381294	
          2.27000000	         -3.91022524	         -6.48083536	          5.35817901	
          2.28000000	         -3.86465749	         -6.56076145	          5.29255218	
          2.29000000	         -3.81774024	         -6.63577973	          5.22704989	
          2.30000000	         -3.76950370	         -6.70627274	          5.16176718	
          2.31000000	         -3.72021371	         -6.77283208	          5.09678298	
          2.32000000	         -3.67032503	         -6.83619104	          5.03217278	
          2.33000000	         -3.62038910	         -6.89713238	          4.96802591	
          2.34000000	         -3.57092642	         -6.95638935	          4.90446422	
          2.35000000	         -3.52230869	         -7.01456973	          4.84165502	
          2.36000000	         -3.47469784	         -7.07212419	          4.77981224	
          2.37000000	         -3.42804375	         -7.12935300	          4.71918661	
          2.38000000	         -3.38211517	         -7.18643148	          4.66004887	
          2.39000000	         -3.33655562	         -7.24344346	          4.60266750	
          2.40000000	         -3.29096114	         -7.30041415	          4.54728330	
          2.41000000	         -3.24495865	         -7.35733198	          4.49408640	
          2.42000000	         -3.19826532	         -7.41415842	          4.44320065	
          2.43000000	         -3.15072951	         -7.47083585	          4.39467577	
          2.44000000	         -3.10235973	         -7.52729799	          4.34848564	
          2.45000000	         -3.05334121	         -7.58347846	          4.30453145	
          2.46000000	         -3.00403456	         -7.63931439	          4.26264781	
          2.47000000	         -2.95494735	         -7.69474605	          4.22260966	
          2.48000000	         -2.90666968	         -7.74971284	          4.18414043	
          2.49000000	         -2.85977475	         -7.80414765	          4.14692464	
          2.50000000	         -2.81471068	         -7.85797852	          4.11062435	
          2.51000000	         -2.77172338	         -7.91114344	          4.07489677	
          2.52000000	         -2.73082700	         -7.96360468	          4.03941234	
          2.53000000	         -2.69181265	         -8.01534376	          4.00387472	
          2.54000000	         -2.65428695	         -8.06634029	          3.96804110	
          2.55000000	         -2.61773676	         -8.11655649	          3.93173702	
          2.56000000	         -2.58160782	         -8.16593948	          3.89486085	
          2.57000000	         -2.54537961	         -8.21443084	          3.85737748	
          2.58000000	         -2.50862479	         -8.26196457	          3.81930461	
          2.59000000	         -2.47105212	         -8.30844540	          3.78069681	
          2.60000000	         -2.43253279	         -8.35371852	          3.74163005	
          2.61000000	         -2.39310416	         -8.39755670	          3.70218492	
          2.62000000	         -2.35294784	         -8.43968836	          3.66242667	
          2.63000000	         -2.31234718	         -8.47986475	          3.62238436	
          2.64000000	         -2.27163202	         -8.51793572	          3.58203706	
          2.65000000	         -2.23112092	         -8.55390022	          3.54131276	
          2.66000000	         -2.19107249	         -8.58791556	          3.50009899	
          2.67000000	         -2.15165522	         -8.62026828	          3.45825956	
          2.68000000	         -2.11294013	         -8.65131624	          3.41565324	
          2.69000000	         -2.07490922	         -8.68141050	          3.37215432	
          2.70000000	         -2.03746355	         -8.71080827	          3.32767562	
